<svg viewBox="0 0 355.91 46.66" xmlns="http://www.w3.org/2000/svg"><path d="m10.41 17.68 9.81-5.69v-11.99l-20.22 11.69z" fill="#4d8fcc"/><path d="m20.24 34.66 9.82-5.67 10.39-6v12l-20.2 11.67z" fill="#2f73b0"/><path d="m20.22 11.99 9.82 5.67 10.38-6-20.2-11.66z" fill="#2f73b0"/><path d="m20.24 34.66-9.83-5.66-10.38 6.02 20.23 11.64z" fill="#4d8fcc"/><path d="m10.41 29v-11.32l-10.41-5.99.03 23.33z" fill="#2f73b0"/><path d="m20.22 11.99 9.82 5.67v11.34l-9.82-5.66z" fill="#808184"/><path d="m20.22 11.99-9.81 5.69v11.32l9.81-5.66z" fill="#58595b"/><path d="m68.59 30.5a10.69 10.69 0 0 1 -7.68 3c-7.43 0-10.76-5.12-10.79-10.49s3.48-10.69 10.79-10.69a10.44 10.44 0 0 1 7.48 3.1l-2.19 2.1a7.52 7.52 0 0 0 -5.29-2.1c-5.21 0-7.57 3.82-7.55 7.6s2.26 7.45 7.55 7.45a7.92 7.92 0 0 0 5.43-2.22z" fill="#fff"/><path d="m80.61 21.7 5.82-9h3.94v.14l-8.12 11.9v8.39h-3.25v-8.39l-7.92-11.93v-.14h3.92z" fill="#fff"/><path d="m104.08 12.67c3.89 0 7 1.78 7 5.84a4.26 4.26 0 0 1 -2.84 4.07 5 5 0 0 1 3.48 4.7c0 4.48-3.56 5.85-7.6 5.85h-9.42v-20.46zm-6.14 8.47h6.17c2.46 0 3.68-1 3.68-2.57 0-1.43-1.25-3-3.71-3h-6.14zm0 9h6.14c1.81 0 4.33-.58 4.33-2.84s-2.43-3.18-4.3-3.18h-6.17z" fill="#fff"/><path d="m132.2 33.13h-15.11v-20.46h15v3.18h-11.73v5.53h11.29v3h-11.29v5.49h11.84z" fill="#fff"/><path d="m155.53 33.13h-3.83l-6.23-7.07h-4.32v7.07h-3.28v-20.49h9.53c4.74 0 7.22 3.24 7.22 6.69a6 6 0 0 1 -5.55 6.37l6.11 6.82zm-14.38-17.48v7.42h6.22c2.72 0 3.92-1.72 3.92-3.65a3.65 3.65 0 0 0 -3.89-3.77z" fill="#fff"/><path d="m174 29.77h-9.15l-1.34 3.36h-6.11l9.18-20.46h5.85l9.15 20.46h-6.2zm-4.53-11.37-2.63 6.52h5.24z" fill="#2f73b0"/><path d="m203.62 33.13h-6.38l-4.76-6.64h-2v6.64h-5.79v-20.46h10c5.23 0 8 3.36 8 7 0 2.52-.87 4.65-4.32 6.17l5.32 6.9zm-13.16-15.84v4.91h4.27a2.14 2.14 0 0 0 2.19-2.37 2.3 2.3 0 0 0 -2.25-2.54z" fill="#2f73b0"/><path d="m225.77 13-8.3 9.67c2.87 3.16 6.17 6.84 9 10.09v.35h-7.17l-5.84-6.81v6.81h-5.79v-20.44h5.79v6.72c1.75-2.16 3.65-4.56 5.38-6.72h6.92z" fill="#2f73b0"/><path d="m230.71 13.55a2.39 2.39 0 1 1 2.39-2.39 2.37 2.37 0 0 1 -2.39 2.39zm0-4.44a2 2 0 0 0 -2 2.05 2 2 0 1 0 3.94 0 2 2 0 0 0 -1.94-2.05zm.87 3.37h-.23s-.09 0-.11-.05l-.19-.34a4.5 4.5 0 0 0 -.46-.66.19.19 0 0 0 -.16-.08h-.08v1a.13.13 0 0 1 -.13.13h-.16a.13.13 0 0 1 -.13-.13v-2.41a.12.12 0 0 1 .13-.12h.67c.6 0 .89.34.89.74a.68.68 0 0 1 -.69.73 3.8 3.8 0 0 1 .75 1c.03.11.01.19-.1.19zm-1-2.33h-.26v.85h.25c.46 0 .58-.14.58-.45s-.15-.4-.54-.4z" fill="#2f73b0"/><g fill="#fff"><path d="m250.09 12.67a10 10 0 0 1 6.91 2.64l-1.48 1.53a8.67 8.67 0 0 0 -5.43-2.13 8.06 8.06 0 0 0 -7.93 8.19 8.06 8.06 0 0 0 7.93 8.16 8.28 8.28 0 0 0 5.43-2.14l1.48 1.45a9.76 9.76 0 0 1 -6.91 2.76 10.23 10.23 0 1 1 0-20.46z"/><path d="m269.89 12.67a10.23 10.23 0 1 1 -10.21 10.26 10.21 10.21 0 0 1 10.21-10.26zm0 18.47a8.24 8.24 0 1 0 -8.22-8.21 8.26 8.26 0 0 0 8.22 8.21z"/><path d="m298.56 12.67v16h-.05l-12-16h-2.07v20.46h2.07v-16.29l12 16.29h2.13v-20.46s0 0 0 0h-2s-.08-.04-.08 0z"/><path d="m312.62 12.67v14.33c0 3-1.76 4.27-3.46 4.27a4 4 0 0 1 -2.76-1.51c-.29-.31-.51-.51-1-.08l-.59.68a.59.59 0 0 0 -.06.71 5.47 5.47 0 0 0 4.32 2.1c3.32 0 5.71-2.27 5.71-6.22v-14.28s0 0 0 0h-2.14s-.02-.04-.02 0z"/><path d="m333.54 12.67v12.73c0 3.24-2 5.71-5.4 5.71s-5.34-2.53-5.34-5.77v-12.67s0 0 0 0h-2.12s0 0 0 0v12.84a7.53 7.53 0 1 0 15.06 0v-12.84s0 0 0 0h-2.12s-.08-.04-.08 0z"/><path d="m351.42 24.8a6.34 6.34 0 0 0 4.21-5.8 6.11 6.11 0 0 0 -6.2-6.06s-7.9-.28-7.9 0v19.84h2.19v-7.72h5.43l4.05 8.07h2.71zm-7.65-1.62v-8.18h5.52a4.08 4.08 0 1 1 0 8.15z"/></g></svg>